# xmcd
#
# Track frame offsets:
#	150
#	15665
#	33329
#	45417
#	57979
#	68423
#	90477
#	102493
#	121422
#	138391
#	152475
#	175140
#	196861
#	209274
#	220487
#
# Disc length: 3109 seconds
#
# Revision: 1
# Processed by: cddbd v1.5.2PL0 Copyright (c) Steve Scherf et al.
# Submitted via: audiograbber 1.83.01
#
DISCID=c70c230f
DTITLE=Various Artist - SBI Karaoke. Country Hits Vol 1 Disc 2
DYEAR=2000
DGENRE=Karaoke
TTITLE0=Jeannie C Riley - Harper Valley
TTITLE1=Johnn Cash - A Boy Naned Sue
TTITLE2=Connie Smit - Once A Day
TTITLE3=Johnny Cash - Ring Of Fire
TTITLE4=Patsy Cline - Blue Moon Of Kentucky
TTITLE5=Marty Robbins - El Paso City
TTITLE6=Alan Jackson - Chattahoochie
TTITLE7=Alan Jackson - Country Boy
TTITLE8=George Strait - All M Ex's Live In Texas
TTITLE9=George Jones and Tammy Wynette - M Elusive Dream
TTITLE10=Merle Haggard - I Think I'll Just Stay Here and Drink
TTITLE11=Dolly Parton and Kenny Rogers - Islands In The Stream
TTITLE12=Don Gibson - Sea Of Heartbreak
TTITLE13=Eddy Arnold - The Last Word In Lonesome Is Me
TTITLE14=Loretta Lynn - Out of My Head and Back in My Bed
EXTD=SB1628
EXTT0=
EXTT1=
EXTT2=
EXTT3=
EXTT4=
EXTT5=
EXTT6=
EXTT7=
EXTT8=
EXTT9=
EXTT10=
EXTT11=
EXTT12=
EXTT13=
EXTT14=
PLAYORDER=
